PathFileType	4	(X/Y/Z)	C:\Documents and Settings\mvidt\Desktop\Forward_reach_ACS_12-5-11\acs_static-redo2.trc
DataRate	CameraRate	NumFrames	NumMarkers	Units	OrigDataRate	OrigDataStartFrame	OrigNumFrames
200.00	200.00	      12	10	mm	200.00	1751	      2000
Frame#	Time	R.Clavicle			C7			R.Shoulder			R.Bicep			R.Elbow.Lateral			R.Forearm			R.Radius			Handle			R.Elbow.Medial			R.Ulna			
		X1	Y1	Z1	X2	Y2	Z2	X3	Y3	Z3	X4	Y4	Z4	X5	Y5	Z5	X6	Y6	Z6	X7	Y7	Z7	X8	Y8	Z8	X9	Y9	Z9	X10	Y10	Z10	

1751	8.750	-123.50027	373.85233	267.35388	-228.45058	395.23499	393.55383	-148.76878	216.79271	317.79443	-42.80077	205.57684	161.52402	-14.37482	153.60008	55.74462	85.80379	195.16295	91.27335	234.84966	244.04655	97.91071	359.04324	271.18433	124.12280	-55.61433	227.87138	18.64065	234.20702	245.29041	11.28380	
1752	8.755	-123.50027	373.85233	267.35388	-228.28641	394.83929	392.30200	-147.94760	216.29596	317.67935	-42.47890	205.66962	161.32825	-14.19567	153.85233	55.00697	85.80379	195.16295	91.27335	235.34261	244.36693	97.44888	359.04324	271.18433	124.12280	-55.72383	227.18486	18.49868	233.72791	246.00781	11.00700	
1753	8.760	-123.42720	373.86874	267.12238	-228.35204	395.25632	393.37466	-147.28966	216.49556	317.72977	-43.04279	204.52718	161.24532	-14.05508	153.51402	54.72255	85.30456	194.83521	90.36977	234.35095	242.81029	96.23040	358.77545	270.98026	123.94240	-55.83334	226.49832	18.35671	233.84340	245.71846	10.87200	
1754	8.765	-122.53359	373.66107	267.18216	-228.35204	395.25632	393.37466	-146.76823	215.55688	316.50024	-42.73362	204.32678	160.77361	-14.05508	153.51402	54.72255	85.30456	194.83521	90.36977	234.20479	242.21085	95.55298	359.00580	270.40771	123.49033	-55.94284	225.81180	18.21474	233.84445	245.45314	10.75509	
1755	8.770	-122.53359	373.66107	267.18216	-228.20799	395.35181	393.43903	-146.60571	215.34665	316.45490	-42.73362	204.32678	160.77361	-14.54445	153.80794	54.31482	85.26548	195.01259	89.79202	234.60020	242.81422	95.33350	358.91776	270.13174	122.98883	-56.05235	225.12526	18.07277	233.50983	245.10381	10.76550	
1756	8.775	-122.05876	373.58334	266.98776	-227.20963	394.82034	393.99216	-146.06462	215.13995	316.03067	-41.79629	205.75745	160.00470	-14.45380	153.46297	53.93167	85.53546	195.00208	88.33499	235.15257	244.11714	95.91158	358.69733	269.80746	122.88564	-56.16185	224.43874	17.93081	233.50983	245.10381	10.76550	
1757	8.780	-121.94260	373.31784	266.91440	-226.34077	393.94797	394.02271	-145.96951	215.58333	316.90823	-42.07582	205.55710	159.63921	-14.75305	153.42455	53.33869	86.07336	195.00162	88.16936	234.51910	244.07463	95.30914	358.71252	269.03595	122.62036	-56.27135	223.75220	17.78884	233.96634	245.23878	10.03741	
1758	8.785	-121.29747	372.70541	266.69852	-226.85612	394.10181	393.80972	-145.89523	215.54747	317.06543	-42.03947	205.52116	158.99117	-16.20733	152.41859	52.36545	85.02414	194.34982	87.67815	234.45927	244.22174	95.17271	358.24451	267.98874	122.12203	-56.38086	223.06567	17.64687	232.98531	245.61720	8.86452	
1759	8.790	-121.29747	372.70541	266.69852	-226.03838	393.79321	394.20779	-144.92032	214.61218	316.49353	-42.37522	205.50294	158.69490	-16.20733	152.41859	52.36545	84.50552	194.22186	87.11720	233.64870	243.28711	94.74501	358.24451	267.98874	122.12203	-56.49036	222.37914	17.50490	232.98531	245.61720	8.86452	
1760	8.795	-120.75848	372.45612	267.02307	-226.03838	393.79321	394.20779	-144.78055	214.36046	316.51813	-43.73512	201.69643	158.21687	-16.20733	152.41859	52.36545	85.06100	195.98653	88.02362	232.94022	242.43404	94.38720	357.91562	267.33765	121.64795	-56.59987	221.69261	17.36293	233.02834	245.82224	8.27496	
1761	8.800	-120.76419	372.13971	267.23029	-225.49889	393.61081	394.65594	-144.45633	214.28122	316.59323	-42.94371	202.57312	157.72563	-16.78671	152.80240	51.94017	84.27000	193.40877	86.56329	232.77611	242.68529	94.21307	357.74173	267.18353	121.93158	-56.70938	221.00607	17.22096	232.75146	246.23671	8.11477	
1762	8.805	-120.76419	372.13971	267.23029	-225.66541	392.93335	395.19318	-144.15875	214.14441	316.73148	-42.87198	203.11618	157.42303	-16.55663	152.37337	51.67394	83.59579	193.78986	86.16829	232.78976	242.08034	93.83429	357.58286	267.21008	121.96689	-56.81888	220.31955	17.07900	232.71111	246.05968	7.83248	
